<?xml version="1.0" standalone="no"?>
<!DOCTYPE svg PUBLIC "-//W3C//DTD SVG 20010904//EN"
 "http://www.w3.org/TR/2001/REC-SVG-20010904/DTD/svg10.dtd">
<svg version="1.0" xmlns="http://www.w3.org/2000/svg"
 width="714.000000pt" height="211.000000pt" viewBox="0 0 714.000000 211.000000"
 preserveAspectRatio="xMidYMid meet">

<g transform="translate(0.000000,211.000000) scale(0.100000,-0.100000)"
fill="#000000" stroke="none">
<path d="M0 1908 c0 -234 -15 -224 116 -72 44 50 117 132 163 183 l83 91 -181
0 -181 0 0 -202z"/>
<path d="M915 1741 c-27 -4 -41 -12 -43 -23 -2 -11 3 -18 13 -18 9 0 13 4 10
10 -9 14 42 25 115 24 110 -3 238 -18 252 -32 6 -6 20 -12 30 -12 11 0 15 -5
12 -15 -4 -8 -1 -21 5 -29 6 -7 8 -16 4 -19 -3 -4 -1 -7 5 -7 7 0 11 -16 9
-42 -3 -41 -4 -43 -47 -56 -25 -7 -53 -17 -62 -23 -10 -5 -28 -9 -42 -9 -16 0
-31 -12 -50 -41 -15 -22 -32 -38 -39 -35 -7 3 -20 9 -29 12 -17 6 -48 71 -48
99 0 9 11 20 25 25 27 10 34 23 11 18 -19 -4 -19 -1 -11 46 8 42 -2 56 -43 56
-35 0 -21 24 19 32 l34 7 -35 -4 c-19 -1 -46 -6 -60 -10 -56 -17 -130 4 -98
27 13 10 8 9 -67 -12 l-30 -8 33 -1 c18 -1 31 -5 28 -10 -3 -4 -26 -6 -51 -4
-25 3 -53 2 -63 -2 -32 -12 9 -24 56 -15 23 4 42 4 42 0 0 -4 19 -10 41 -14
23 -4 39 -10 35 -13 -3 -4 4 -17 16 -30 18 -19 20 -26 9 -32 -11 -7 -9 -11 8
-20 27 -15 27 -28 0 -36 -14 -5 -25 -2 -30 6 -6 10 -8 6 -7 -11 2 -18 -2 -25
-14 -24 -10 1 -15 -2 -12 -7 7 -12 -13 -11 -37 1 -10 6 -19 17 -19 25 0 8 -9
15 -21 15 -11 0 -18 4 -14 10 3 5 12 7 20 4 7 -3 24 0 37 7 l23 13 -25 7 c-16
4 -19 7 -7 8 21 1 22 17 1 25 -9 3 -25 -4 -39 -19 -15 -14 -33 -22 -44 -20
-18 3 -19 0 -10 -21 8 -23 7 -25 -12 -19 -14 5 -19 3 -15 -3 3 -6 1 -14 -6
-18 -7 -4 -10 -4 -6 1 4 4 0 14 -9 20 -19 14 -46 6 -93 -26 -36 -24 -34 -51 6
-78 28 -19 32 -26 23 -42 -13 -25 -2 -44 17 -28 8 6 14 17 14 25 0 7 12 19 28
27 15 7 26 19 24 26 -2 8 4 21 13 31 8 9 14 23 12 31 -2 8 -2 11 0 8 2 -3 15
-4 29 -1 31 6 69 -29 52 -46 -17 -17 20 -28 43 -14 16 10 20 8 25 -12 3 -14 3
-29 1 -34 -3 -4 7 -19 24 -32 31 -26 37 -48 17 -68 -9 -9 -7 -13 8 -19 20 -8
32 -53 14 -53 -6 0 -10 4 -10 8 0 4 -12 9 -26 10 -41 3 -47 12 -25 36 l20 21
-66 2 c-58 2 -63 0 -47 -12 11 -8 14 -14 7 -15 -7 0 -13 -7 -13 -15 0 -14 17
-20 48 -16 24 3 11 -17 -15 -23 -16 -4 -36 -9 -45 -12 -10 -3 -18 -1 -18 5 0
6 8 11 17 11 9 0 14 2 11 5 -10 10 -98 -17 -98 -30 0 -7 -12 -16 -27 -20 -15
-3 -34 -15 -43 -25 -10 -11 -20 -17 -24 -13 -3 3 -6 -5 -6 -18 -1 -18 -11 -29
-43 -45 -40 -19 -42 -22 -47 -75 -4 -47 -6 -51 -17 -34 -6 12 -11 29 -10 40 2
23 -53 49 -60 28 -4 -10 -10 -10 -25 -2 -29 16 -64 -6 -72 -43 -8 -39 -8 -82
0 -102 9 -23 45 -20 51 4 3 12 14 20 25 20 15 0 18 -4 13 -17 -17 -38 -11 -68
13 -71 18 -3 22 -10 22 -40 0 -20 4 -42 8 -48 11 -17 80 -25 89 -10 5 7 21 16
36 20 19 4 26 3 22 -4 -3 -5 3 -10 14 -10 11 0 22 -4 25 -8 2 -4 22 -9 43 -10
29 -2 48 -12 78 -42 23 -22 50 -40 62 -40 13 0 33 -14 49 -35 26 -35 26 -36 8
-50 -18 -13 -18 -14 2 -9 13 4 42 -5 70 -20 27 -14 56 -26 64 -26 20 -1 70
-46 70 -64 0 -8 -15 -27 -34 -43 -19 -16 -37 -42 -40 -59 -7 -32 -41 -72 -52
-61 -10 10 -64 -14 -64 -29 0 -17 -53 -74 -68 -74 -6 0 -9 -6 -6 -14 3 -8 -3
-16 -15 -19 -35 -9 -19 -90 21 -102 10 -4 18 -11 18 -16 0 -13 485 -12 535 2
73 20 179 71 261 125 83 55 136 101 84 74 -14 -7 -40 -26 -57 -41 -35 -30
-170 -99 -195 -99 -27 0 -28 13 -2 39 38 39 84 102 84 115 0 7 16 28 36 47 44
41 67 90 58 124 -4 17 1 33 15 51 21 27 20 44 -4 44 -7 0 -15 6 -18 14 -4 10
-24 13 -80 11 -74 -3 -76 -2 -108 31 -18 19 -29 34 -25 34 4 0 -2 13 -13 29
-24 34 -26 58 -7 84 8 10 13 31 11 46 -3 21 6 39 37 74 22 26 47 47 54 47 8 0
19 12 25 28 6 15 22 36 36 48 26 21 25 44 -3 44 -10 0 -14 14 -14 55 l0 56 38
-7 c20 -3 41 -7 46 -8 6 0 12 8 14 19 3 12 -6 27 -24 42 -28 22 -28 23 -6 23
13 0 39 16 59 35 20 19 40 35 46 35 5 0 4 7 -3 15 -7 8 -9 23 -6 32 6 15 9 15
16 3 5 -8 6 -19 3 -25 -3 -5 0 -4 7 2 11 10 10 16 -4 32 -10 11 -25 17 -36 14
-27 -7 -54 54 -34 78 8 8 14 36 14 62 0 25 4 49 10 52 12 7 58 -16 99 -51 51
-43 35 -11 -21 42 -140 131 -300 213 -488 248 -81 16 -255 19 -335 7z m-70
-51 c-4 -6 6 -10 21 -10 17 0 24 -4 19 -9 -6 -5 -25 -7 -43 -4 -26 4 -30 8
-21 19 13 16 33 19 24 4z m655 -60 c6 -11 16 -17 22 -14 7 4 8 3 4 -4 -4 -8
-18 -5 -41 9 -40 24 -43 29 -15 29 10 0 24 -9 30 -20z m-81 -176 c12 -11 10
-15 -14 -24 -24 -9 -33 -8 -54 8 -14 10 -26 23 -28 29 -6 16 78 4 96 -13z
m151 -144 c8 -5 12 -12 8 -15 -6 -6 6 -24 42 -65 27 -30 22 -40 -18 -40 -34 0
-38 3 -38 25 0 14 5 25 10 25 6 0 6 4 -1 11 -15 15 -34 3 -26 -16 4 -11 -2
-15 -22 -15 -22 0 -26 4 -23 23 2 14 11 23 25 25 19 3 21 7 13 21 -14 28 2 39
30 21z m-760 -30 c0 -5 -2 -10 -4 -10 -3 0 -8 5 -11 10 -3 6 -1 10 4 10 6 0
11 -4 11 -10z m-316 -382 c36 -24 45 -38 24 -38 -16 1 -86 60 -71 60 6 0 27
-10 47 -22z m112 -59 c3 -5 -9 -9 -25 -9 -20 0 -31 5 -31 14 0 15 46 11 56 -5z"/>
<path d="M675 1636 c-16 -15 -35 -24 -42 -22 -7 3 -13 1 -13 -4 0 -15 56 -5
75 13 29 30 11 42 -20 13z"/>
<path d="M760 1653 c-19 -8 -49 -46 -43 -55 2 -5 13 -3 24 2 11 6 17 15 14 20
-3 5 5 16 17 24 22 16 17 20 -12 9z"/>
<path d="M585 1621 c-3 -5 -2 -12 3 -15 5 -3 9 1 9 9 0 17 -3 19 -12 6z"/>
<path d="M4498 1561 c-194 -64 -324 -231 -336 -432 -7 -121 15 -211 89 -359
32 -66 59 -129 59 -140 0 -36 -28 -77 -64 -94 -42 -20 -76 -20 -123 -1 -19 8
-37 15 -39 15 -3 0 -3 -91 -2 -202 l3 -202 55 -18 c32 -10 89 -17 135 -17 124
-1 221 30 314 102 120 92 184 226 185 382 0 99 -23 174 -100 322 -66 125 -68
163 -15 217 29 28 37 31 91 30 l60 -1 0 194 0 193 -27 12 c-16 6 -73 13 -128
15 -78 2 -113 -1 -157 -16z"/>
<path d="M5360 1565 c-176 -49 -288 -157 -346 -335 -16 -49 -18 -107 -22 -573
l-3 -517 208 2 208 3 3 168 2 167 60 0 60 0 0 185 0 185 -60 0 -60 0 0 114 c0
62 5 127 11 144 21 62 95 81 146 38 l28 -24 3 -491 3 -491 207 2 207 3 3 430
c1 237 -2 482 -7 546 -21 243 -95 363 -270 430 -74 29 -296 37 -381 14z"/>
<path d="M2402 998 c4 -529 5 -556 25 -615 41 -122 107 -203 201 -246 39 -18
67 -21 167 -21 154 -1 196 16 291 116 l66 70 16 -23 c77 -110 165 -161 294
-167 206 -10 363 101 413 293 13 50 15 145 15 602 l0 543 -205 0 -205 0 0
-467 c0 -293 -4 -482 -10 -505 -15 -54 -62 -75 -94 -42 -14 14 -16 74 -16 515
l0 499 -210 0 -209 0 -3 -494 c-3 -470 -4 -495 -22 -515 -25 -27 -61 -27 -80
1 -14 20 -16 85 -16 515 l0 493 -211 0 -210 0 3 -552z"/>
<path d="M6140 1350 l0 -200 160 0 160 0 2 -502 3 -503 208 -3 207 -2 0 505 0
505 130 0 130 0 0 200 0 200 -500 0 -500 0 0 -200z"/>
<path d="M1722 1377 c0 -17 5 -39 12 -47 20 -24 18 -67 -5 -83 l-20 -14 21 -6
c34 -9 65 6 66 31 0 12 -3 22 -8 22 -4 0 -8 5 -8 10 0 6 7 10 15 10 8 0 15 5
15 11 0 6 -8 8 -19 4 -21 -6 -51 31 -51 64 0 34 -17 32 -18 -2z"/>
<path d="M441 1384 c0 -11 3 -14 6 -6 3 7 2 16 -1 19 -3 4 -6 -2 -5 -13z"/>
<path d="M472 1305 c-23 -12 -23 -12 9 -19 38 -7 43 -5 26 16 -10 12 -16 13
-35 3z"/>
<path d="M465 1244 c-24 -37 -13 -40 14 -4 12 17 17 30 12 30 -5 0 -16 -12
-26 -26z"/>
<path d="M514 1253 c3 -18 6 -19 29 -10 9 4 8 8 -3 16 -22 15 -29 13 -26 -6z"/>
<path d="M568 1223 c7 -3 16 -2 19 1 4 3 -2 6 -13 5 -11 0 -14 -3 -6 -6z"/>
<path d="M508 1203 c7 -3 16 -2 19 1 4 3 -2 6 -13 5 -11 0 -14 -3 -6 -6z"/>
<path d="M158 1105 c-85 -299 -13 -599 199 -831 82 -90 228 -190 345 -234 68
-26 68 -25 30 8 -18 16 -32 32 -32 36 0 4 -11 22 -24 39 -13 18 -26 43 -29 57
-3 14 -13 59 -23 101 -13 63 -21 78 -46 95 -41 27 -120 142 -125 182 -2 19 3
42 12 55 26 38 15 104 -16 92 -17 -6 -69 34 -69 53 0 6 -12 19 -27 29 -16 10
-34 26 -41 35 -7 10 -21 18 -32 18 -34 0 -67 53 -75 122 -8 58 -9 60 -15 28
l-6 -35 -6 40 c-3 22 -2 45 3 50 4 6 4 35 0 65 l-6 55 -17 -60z"/>
<path d="M1779 1052 c28 -40 51 -59 51 -42 0 11 -57 70 -67 70 -3 0 5 -13 16
-28z"/>
<path d="M1701 1063 c-21 -4 -66 -47 -66 -63 -1 -16 -19 -30 -41 -30 -13 0
-24 -4 -24 -9 0 -13 35 -20 54 -9 9 5 42 8 74 6 56 -3 57 -4 57 -32 0 -18 7
-33 19 -40 11 -6 29 -19 40 -29 18 -16 21 -16 24 -3 4 20 19 20 52 1 37 -21
57 -18 62 10 3 14 1 25 -4 25 -5 0 -6 5 -3 10 3 6 -5 14 -18 19 -16 6 -26 20
-30 41 -4 19 -11 29 -18 25 -6 -4 -8 -14 -5 -22 12 -30 -7 -34 -20 -4 -16 37
-26 39 -44 6 -11 -20 -16 -23 -28 -13 -13 11 -11 13 8 18 23 5 22 6 -14 45
-37 39 -38 39 -34 13 3 -15 1 -33 -4 -40 -6 -8 -8 4 -5 35 3 26 2 46 -2 46 -3
-1 -17 -4 -30 -6z"/>
<path d="M1905 1058 c-10 -25 -2 -53 15 -53 8 0 21 -4 28 -9 7 -4 16 -5 19 -2
9 8 -18 56 -28 50 -4 -2 -12 4 -18 13 -9 17 -10 17 -16 1z"/>
<path d="M1981 1034 c0 -11 3 -14 6 -6 3 7 2 16 -1 19 -3 4 -6 -2 -5 -13z"/>
<path d="M1991 994 c0 -11 3 -14 6 -6 3 7 2 16 -1 19 -3 4 -6 -2 -5 -13z"/>
<path d="M1942 760 c0 -14 2 -19 5 -12 2 6 2 18 0 25 -3 6 -5 1 -5 -13z"/>
<path d="M1942 645 c0 -16 2 -22 5 -12 2 9 2 23 0 30 -3 6 -5 -1 -5 -18z"/>
<path d="M1935 550 c-3 -5 -1 -10 4 -10 6 0 11 5 11 10 0 6 -2 10 -4 10 -3 0
-8 -4 -11 -10z"/>
<path d="M1829 361 c-66 -76 -102 -124 -87 -115 23 14 138 154 125 154 -2 0
-20 -17 -38 -39z"/>
</g>
</svg>
